<svg width="371" height="360" viewBox="-20 -20 411 400" xmlns="http://www.w3.org/2000/svg">
    <path id="Path" fill="currentColor" stroke="currentColor" stroke-width="22" stroke-linejoin="round" d="M 47 348 C 45.355431 348.38382 43.644569 348.38382 42 348 C 41.676468 346.34903 41.676468 344.65097 42 343 L 42 160 C 42 154 37 149 31 149 L 11 149 L 185 11 L 289 93 C 297 98 307 93 307 84 L 307 59 L 322 59 L 322 114 C 322.140076 117.112854 323.59375 120.020264 326 122 L 360 149 L 339 149 C 333 149 328 154 328 160 L 328 343 C 328.20636 344.325348 328.20636 345.674652 328 347 C 326.434662 347.720367 324.721985 348.062897 323 348 Z M 170 25 L 56 115 C 49 120 42 129 42 144 L 42 321 C 42 336 51 346 66 346 L 304 346 C 319 346 328 336 328 321 L 328 144 C 328 129 321 120 314 115 L 200 25 C 190 19 178 19 170 25 Z M 103 286 L 103 159 C 103 155 104 154 105 153 L 185 90 L 265 153 C 266 154 267 154 267 159 L 267 286 Z M 185 97 C 179 97 176 98 171 102 L 113 147 C 104 154 104 162 104 167 L 104 264 C 104 276 112 284 123 284 L 247 284 C 258 284 266 276 266 264 L 266 167 C 266 162 266 154 257 147 L 199 101 C 194 98 190 97 185 97 Z M 157 231 L 157 182 L 185 161 L 213 182 L 213 230 Z M 185 165 C 181 165 179 167 175 170 L 164 179 C 160.490997 181.615723 158.299454 185.633606 158 190 L 158 216 C 158 224 164 229 171 229 L 199 229 C 206 229 212 223 212 216 L 212 190 C 211.700562 185.633606 209.509003 181.615723 206 179 L 196 170 L 185 165"/>
</svg>
